<svg id="Layer_1" enable-background="new 0 0 100 100" viewBox="0 0 100 100" xmlns="http://www.w3.org/2000/svg"><g><g><path d="m77.03233 7.81144v84.37657c0 3.06844-2.48746 5.55591-5.5559 5.55591h-63.40949c-3.06844 0-5.5559-2.48746-5.5559-5.55591v-84.37657c0-3.06844 2.48746-5.5559 5.5559-5.5559h63.4095c3.06844 0 5.55589 2.48746 5.55589 5.5559z" fill="#fff"/><path d="m71.47595 98.74414h-63.40918c-3.61523 0-6.55566-2.94043-6.55566-6.55566v-84.37696c0-3.61523 2.94043-6.55566 6.55566-6.55566h63.40918c3.61523 0 6.55664 2.94043 6.55664 6.55566v84.37695c0 3.61524-2.9414 6.55567-6.55664 6.55567zm-63.40918-95.48828c-2.51172 0-4.55566 2.04395-4.55566 4.55566v84.37695c0 2.51172 2.04395 4.55566 4.55566 4.55566h63.40918c2.5127 0 4.55664-2.04395 4.55664-4.55566v-84.37695c0-2.51172-2.04395-4.55566-4.55664-4.55566z" fill="#387bfe"/></g><g><path d="m54.43969 21.38982-7.76289 6.09202c.95115 1.36235 1.50379 3.00742 1.50379 4.79391 0 4.63969-3.76574 8.40551-8.40551 8.40551-4.63969 0-8.40543-3.76582-8.40543-8.40551s3.76574-8.40543 8.40543-8.40543v-9.87062c-10.08909 0-18.27606 8.18696-18.27606 18.27606 0 10.08918 8.18697 18.27614 18.27606 18.27614 10.08917 0 18.27614-8.18697 18.27614-18.27614-.00002-4.08705-1.33671-7.85279-3.61153-10.88594z" fill="#fff"/><path d="m39.77478 51.55176c-10.62891 0-19.27539-8.64746-19.27539-19.27637s8.64648-19.27539 19.27539-19.27539c.55273 0 1 .44727 1 1v9.87012c0 .55273-.44727 1-1 1-4.08301 0-7.40527 3.32227-7.40527 7.40527 0 4.08398 3.32227 7.40625 7.40527 7.40625 4.08398 0 7.40625-3.32227 7.40625-7.40625 0-1.52148-.45801-2.98145-1.32422-4.22168-.30371-.43457-.21484-1.03125.20313-1.35938l7.7627-6.0918c.21094-.16504.47754-.23926.74805-.2041.2666.03516.50781.17578.66895.3916 2.49316 3.3252 3.81152 7.29688 3.81152 11.48535-.00001 10.62892-8.64747 19.27638-19.27638 19.27638zm-1-36.52344c-9.0625.51953-16.27539 8.05664-16.27539 17.24707 0 9.52637 7.75 17.27637 17.27539 17.27637 9.52637 0 17.27637-7.75 17.27637-17.27637 0-3.40723-.97266-6.65332-2.82227-9.44922l-6.22852 4.8877c.77539 1.38867 1.18066 2.94824 1.18066 4.56152 0 5.18652-4.21973 9.40625-9.40625 9.40625s-9.40527-4.21973-9.40527-9.40625c0-4.84863 3.6875-8.85156 8.40527-9.35254v-7.89453z" fill="#387bfe"/></g><g><path d="m29.55992 23.45566c-1.27734 1.47786-2.23959 3.23553-2.78203 5.16829" fill="#fff"/><path d="m26.77869 29.62402c-.08984 0-.18066-.01172-.27148-.03711-.53125-.14941-.8418-.70215-.69238-1.2334.57031-2.03027 1.60352-3.9502 2.98828-5.55176.3623-.41797.99316-.46191 1.41113-.10254.41797.36133.46387.99316.10254 1.41113-1.19434 1.38086-2.08496 3.03516-2.57617 4.78418-.12403.44142-.5254.7295-.96192.7295z" fill="#387bfe"/></g><g><path d="m33.93155 20.1065c-.39974.19242-.78856.40396-1.16527.63342" fill="#fff"/><path d="m32.76697 21.74023c-.33789 0-.66699-.1709-.85547-.48047-.28711-.47168-.1377-1.08691.33496-1.37402.4082-.24805.8291-.47754 1.25293-.68066.49805-.24219 1.09473-.02832 1.33398.46875s.0293 1.09473-.46875 1.33398c-.37012.17773-.72949.37402-1.0791.58691-.16211.09864-.34179.14551-.51855.14551z" fill="#387bfe"/></g><g><g><path d="m46.52257 27.26337c.05146.07711.10284.14136.15422.21847l7.76289-6.09202c-3.31594-4.48547-8.64971-7.39012-14.66462-7.39012v9.87063c2.7633-.00001 5.21807 1.33661 6.74751 3.39304z" fill="#8dd1fe"/></g><g><path d="m46.67712 28.48145c-.05176 0-.10449-.00391-.15625-.0127-.27539-.04297-.51953-.19922-.67383-.43066l-.12695-.17773c-1.3916-1.87207-3.61426-2.99023-5.94531-2.99023-.55273 0-1-.44727-1-1v-9.87013c0-.55273.44727-1 1-1 6.07715 0 11.86035 2.91406 15.46875 7.79492.32227.43555.23926 1.04688-.18652 1.38184l-7.7627 6.0918c-.17676.13867-.39453.21289-.61719.21289zm-5.90234-5.55762c2.33594.25293 4.51758 1.38281 6.07324 3.15234l6.18848-4.85645c-3.04102-3.65625-7.50977-5.91113-12.26172-6.19043z" fill="#387bfe"/></g></g><g><path d="m45.97986 20.11719c-.16406 0-.33008-.04004-.48438-.125-.48242-.26855-.65723-.87695-.38965-1.36035l4.4834-8.08496c.17676-.31738.51172-.51465.875-.51465h12.75781c.55273 0 1 .44727 1 1s-.44727 1-1 1h-12.16894l-4.19727 7.57031c-.18261.3291-.52441.51465-.87597.51465z" fill="#387bfe"/></g><g><path d="m25.9613 50.78809h-12.75781c-.55273 0-1-.44727-1-1s.44727-1 1-1h12.16895l4.19629-7.57031c.26758-.48242.87598-.65625 1.36035-.38965.48242.26855.65723.87695.38965 1.36035l-4.48242 8.08496c-.17676.31738-.51173.51465-.87501.51465z" fill="#387bfe"/></g><g><g><path d="m39.77168 63.60071v6.09866c0 .77234-.6261 1.39844-1.39844 1.39844h-23.76887c-.77234 0-1.39844-.6261-1.39844-1.39844v-6.09866c0-.77234.6261-1.39844 1.39844-1.39844h23.76887c.77234 0 1.39844.6261 1.39844 1.39844z" fill="#8dd1fe"/></g><g><path d="m38.37341 72.09766h-23.76855c-1.32227 0-2.39844-1.07617-2.39844-2.39844v-6.09863c0-1.32227 1.07617-2.39844 2.39844-2.39844h23.76855c1.32227 0 2.39844 1.07617 2.39844 2.39844v6.09863c0 1.32226-1.07617 2.39844-2.39844 2.39844zm-23.76855-8.89551c-.21973 0-.39844.17871-.39844.39844v6.09863c0 .21973.17871.39844.39844.39844h23.76855c.21973 0 .39844-.17871.39844-.39844v-6.09863c0-.21973-.17871-.39844-.39844-.39844z" fill="#387bfe"/></g></g><g><path d="m49.52771 79.76367h-36.32422c-.55273 0-1-.44727-1-1s.44727-1 1-1h36.32422c.55273 0 1 .44727 1 1s-.44727 1-1 1z" fill="#387bfe"/></g><g><path d="m49.52771 88.05176h-36.32422c-.55273 0-1-.44727-1-1s.44727-1 1-1h36.32422c.55273 0 1 .44727 1 1s-.44727 1-1 1z" fill="#387bfe"/></g><g><g><path d="m97.48879 63.10463s-11.15224 13.31654-24.91006 13.31654-24.91007-13.31654-24.91007-13.31654 11.15224-13.3166 24.91006-13.3166 24.91007 13.3166 24.91007 13.3166z" fill="#8dd1fe"/></g><g><path d="m72.57849 77.4209c-14.06348 0-25.20898-13.11621-25.67676-13.6748-.31152-.37109-.31152-.91211 0-1.2832.46777-.55859 11.61328-13.6748 25.67676-13.6748s25.20898 13.11621 25.67676 13.6748c.31152.37109.31152.91211 0 1.2832-.46777.55859-11.61328 13.6748-25.67676 13.6748zm-23.56933-14.31738c2.41797 2.61523 12.16016 12.31738 23.56934 12.31738 11.4248 0 21.15332-9.69922 23.56934-12.31543-2.41797-2.61523-12.16016-12.31738-23.56934-12.31738-11.42481 0-21.15333 9.69921-23.56934 12.31543z" fill="#387bfe"/></g></g><g><path d="m85.88863 63.09796c0 7.36172-5.96149 13.3232-13.30986 13.3232-7.34845 0-13.30994-5.96148-13.30994-13.3232 0-7.34845 5.96149-13.30994 13.30994-13.30994 7.34837 0 13.30986 5.96149 13.30986 13.30994z" fill="#fff"/><path d="m72.57849 77.4209c-7.89063 0-14.30957-6.42578-14.30957-14.32324 0-7.89063 6.41895-14.30957 14.30957-14.30957s14.31055 6.41895 14.31055 14.30957c0 7.89746-6.41992 14.32324-14.31055 14.32324zm0-26.63281c-6.78711 0-12.30957 5.52246-12.30957 12.30957 0 6.79492 5.52246 12.32324 12.30957 12.32324 6.78809 0 12.31055-5.52832 12.31055-12.32324 0-6.78711-5.52246-12.30957-12.31055-12.30957z" fill="#387bfe"/></g><g><g><path d="m78.19158 63.1018c0 3.10448-2.51399 5.61847-5.61284 5.61847-3.09888 0-5.61287-2.51399-5.61287-5.61847 0-3.09888 2.51398-5.61287 5.61287-5.61287 3.09885 0 5.61284 2.51398 5.61284 5.61287z" fill="#8dd1fe"/></g><g><path d="m72.57849 69.7207c-3.64648 0-6.6123-2.96973-6.6123-6.61914 0-3.64648 2.96582-6.6123 6.6123-6.6123s6.61328 2.96582 6.61328 6.6123c0 3.64942-2.96679 6.61914-6.61328 6.61914zm0-11.23144c-2.54297 0-4.6123 2.06934-4.6123 4.6123 0 2.54688 2.06934 4.61914 4.6123 4.61914 2.54395 0 4.61328-2.07227 4.61328-4.61914 0-2.54297-2.06933-4.6123-4.61328-4.6123z" fill="#387bfe"/></g></g><g><path d="m70.85388 63.94434c-.55273 0-1-.44727-1-1 0-1.50195 1.22266-2.72461 2.72461-2.72461.55273 0 1 .44727 1 1s-.44727 1-1 1c-.39941 0-.72461.3252-.72461.72461 0 .55273-.44726 1-1 1z" fill="#fff"/></g><g><g><path d="m28.10583 66.88281h-4.55371c-.55273 0-1-.44727-1-1s.44727-1 1-1h4.55371c.55273 0 1 .44727 1 1s-.44726 1-1 1z" fill="#fff"/></g><g><path d="m19.14685 66.88281h-.52637c-.55273 0-1-.44727-1-1s.44727-1 1-1h.52637c.55273 0 1 .44727 1 1s-.44727 1-1 1z" fill="#fff"/></g></g></g></svg>