<svg id="Layer_1" viewBox="0 0 512 512" xmlns="http://www.w3.org/2000/svg" xmlns:xlink="http://www.w3.org/1999/xlink" data-name="Layer 1"><linearGradient id="linear-gradient" gradientUnits="userSpaceOnUse" x1="45.496" x2="466.504" y1="256" y2="256"><stop offset="0" stop-color="#0056e9"/><stop offset=".033" stop-color="#005de8"/><stop offset=".191" stop-color="#007be2"/><stop offset=".359" stop-color="#0092de"/><stop offset=".539" stop-color="#00a2da"/><stop offset=".739" stop-color="#00acd9"/><stop offset="1" stop-color="#00afd8"/></linearGradient><path d="m82.533 373.039 85.13 118.035-29.011 20.926-93.152-129.092 29.041-20.956 7.52 10.463c.119.178.238.327.357.475zm380.143-106.2a19.506 19.506 0 0 0 -11.325-7.758 13.474 13.474 0 0 0 -10.79 1.724l-109.028 87.895a41.683 41.683 0 0 1 .535 15.427 38.466 38.466 0 0 1 -7.372 17.567 33.955 33.955 0 0 1 -15.516 11.444 36.847 36.847 0 0 1 -17.864 1.575l-.268-.03-65.748-10.141a7.338 7.338 0 1 1 2.23-14.5l65.75 10.136.208.03a22.293 22.293 0 0 0 10.76-.892 19.622 19.622 0 0 0 8.828-6.51 24.027 24.027 0 0 0 4.488-10.849 27.305 27.305 0 0 0 -1.307-13.435 33.3 33.3 0 0 0 -9.542-13.763 28.806 28.806 0 0 0 -14.238-6.747l-.238-.03-97.289-15.016a39.7 39.7 0 0 0 -21.194 2.408c-6.806 2.645-13.286 6.985-19.826 12.009l-55.614 42.565 69.284 96.039 5.113-3.448a75.978 75.978 0 0 1 49.1-13.465c19.589 1.515 39.355 2.259 58.973 3.685 9.364.595 18.013.387 25.623-1.545a36.753 36.753 0 0 0 18.667-11.058l126.454-139.733c1.04-1.159 2.467-2.646 3.894-4.162 7.728-8.174 16.17-17.091 7.252-29.427zm-245.106-115.157 13.7 2.319 11.176 1.9a102.455 102.455 0 0 0 14.981 29.4l-5.023 10.2-6.153 12.425a127.269 127.269 0 0 0 11 10.938c4.132-7.847 8.233-15.724 12.335-23.571q5-9.5 9.928-19.053a79.063 79.063 0 1 1 60.1 27.7 82.723 82.723 0 0 1 -9.869-.595c-3.388 6.45-6.717 12.93-10.076 19.351l-1.07 2.021c1.843.386 3.715.713 5.588 1.01l3.656 10.761 4.429 13.138a122.553 122.553 0 0 0 17.151-.179 126.293 126.293 0 0 0 16.943-2.5l2.318-13.673 1.9-11.206a102.48 102.48 0 0 0 29.4-14.981l10.195 5.053 12.425 6.153a126.441 126.441 0 0 0 22.2-26.009l-8.026-11.325-6.569-9.274a102.184 102.184 0 0 0 10.2-31.359l10.76-3.627 13.138-4.458a122.231 122.231 0 0 0 -.178-17.121 126.875 126.875 0 0 0 -2.5-16.973l-13.673-2.318-11.206-1.9a101.907 101.907 0 0 0 -14.981-29.367l5.053-10.2 6.153-12.425a125.637 125.637 0 0 0 -26.009-22.233l-11.325 8.025-9.274 6.6a100.65 100.65 0 0 0 -31.359-10.2l-3.626-10.789-4.452-13.133a126.477 126.477 0 0 0 -34.094 2.676l-2.318 13.7-1.9 11.206a101.075 101.075 0 0 0 -29.367 14.951l-10.2-5.024-12.424-6.182a125.8 125.8 0 0 0 -22.234 26.038l8.025 11.3 6.6 9.3a100.208 100.208 0 0 0 -10.195 31.33l-10.79 3.656-13.133 4.431a126.158 126.158 0 0 0 2.675 34.093zm133.284 12.1c-4.7 8.412-9.245 16.913-13.733 25.444.832.03 1.665.03 2.5.03a64.279 64.279 0 1 0 -52.642-27.287q7-13.287 14.238-26.365a45.891 45.891 0 0 1 47.767-62.57c12.544 2.14 22.8 8.234 31.151 17.716 21.547 28.295 3.623 68.037-29.281 73.03zm-71.695 103.944c18.993-34.688 47.618-91.4 62.837-118.154 26.633 1.457 42.357-29.041 26.454-49.907l-14.208 24.968-14.059.09-7.105-12.1 14.209-25c-26.1-3.032-44.26 26.1-29.4 48.242-15.246 26.845-44.049 83.886-62.987 118.485-7.19 13.138 16.8 27.05 24.259 13.376zm-128.259-33.708a25.269 25.269 0 1 0 -17.864-7.4 25.156 25.156 0 0 0 17.864 7.4zm-68.813-15.753a69.5 69.5 0 0 1 0-19.024l7.49-1.873 6.123-1.545a56.87 56.87 0 0 1 7.015-16.943l-3.24-5.44-3.953-6.6a70.437 70.437 0 0 1 13.465-13.465l6.6 3.953 5.44 3.24a56.849 56.849 0 0 1 16.942-7.015l1.546-6.123 1.873-7.491a69.493 69.493 0 0 1 19.023 0l1.873 7.491 1.545 6.123a56.844 56.844 0 0 1 16.943 7.015l5.44-3.24 6.6-3.953a70.466 70.466 0 0 1 13.465 13.465l-3.954 6.6-3.24 5.44a56.818 56.818 0 0 1 7.015 16.943l6.124 1.545 7.49 1.873a69.5 69.5 0 0 1 0 19.024l-7.49 1.872-6.124 1.546a56.829 56.829 0 0 1 -7.015 16.943l3.24 5.44 3.954 6.6a70.466 70.466 0 0 1 -13.465 13.465l-6.6-3.953-5.44-3.24a56.87 56.87 0 0 1 -16.943 7.015l-1.545 6.123-1.873 7.491a69.493 69.493 0 0 1 -19.023 0l-1.873-7.491-1.546-6.123a56.875 56.875 0 0 1 -16.942-7.015l-5.44 3.24-6.6 3.953a70.437 70.437 0 0 1 -13.465-13.465l3.953-6.6 3.24-5.44a56.881 56.881 0 0 1 -7.015-16.943l-6.123-1.546zm28.862-9.512a39.984 39.984 0 1 0 11.711-28.238 39.83 39.83 0 0 0 -11.711 28.238z" fill="url(#linear-gradient)" fill-rule="evenodd"/></svg>