<svg clip-rule="evenodd" fill-rule="evenodd" stroke-linejoin="round" stroke-miterlimit="2" viewBox="0 0 32 32" xmlns="http://www.w3.org/2000/svg"><g transform="translate(-240 -96)"><g transform="translate(-48 96)"><circle cx="304" cy="16" fill="#c40001" r="15"/></g><g transform="matrix(.707 .707 -.707 .707 154.177 -148.215)"><path d="m253 115h-4c-.796 0-1.559-.316-2.121-.879-.563-.562-.879-1.325-.879-2.121s.316-1.559.879-2.121c.562-.563 1.325-.879 2.121-.879h4v-4c0-.796.316-1.559.879-2.121.562-.563 1.325-.879 2.121-.879s1.559.316 2.121.879c.563.562.879 1.325.879 2.121v4h4c.796 0 1.559.316 2.121.879.563.562.879 1.325.879 2.121s-.316 1.559-.879 2.121c-.562.563-1.325.879-2.121.879h-4v4c0 .796-.316 1.559-.879 2.121-.562.563-1.325.879-2.121.879s-1.559-.316-2.121-.879c-.563-.562-.879-1.325-.879-2.121z" fill="#e6e6e6"/></g></g></svg>