<svg id="Layer_2" viewBox="0 0 512 512" xmlns="http://www.w3.org/2000/svg" data-name="Layer 2"><g id="Icon"><g id="_45" data-name="45"><rect fill="#1673df" height="512" rx="256" width="512"/><path d="m189.86 256-97.39 97.38c-2.84-5.15-4.47-11.07-4.47-17.38v-160c0-6.31 1.63-12.23 4.47-17.38zm91.6 26.54 57.07-57.07c-12.68-12.67-20.53-30.17-20.53-49.47 0-13.16 3.65-25.47 9.99-36h-203.99c-9.94 0-18.94 4.03-25.46 10.54l132 132c14.06 14.06 36.86 14.06 50.92 0zm7.07 7.08c-8.69 8.68-20.24 13.47-32.53 13.47s-23.84-4.79-32.53-13.47l-26.54-26.55-98.39 98.39c6.52 6.51 15.52 10.54 25.46 10.54h264c9.94 0 18.94-4.03 25.46-10.54l-98.39-98.39zm57.57-57.58-23.96 23.96 97.39 97.38c2.84-5.15 4.47-11.07 4.47-17.38v-99.99c-10.53 6.34-22.84 9.99-36 9.99-15.7 0-30.21-5.2-41.9-13.96zm101.9-56.04c0 33.14-26.86 60-60 60s-60-26.86-60-60 26.86-60 60-60 60 26.86 60 60zm-42.46 3.54c.94-.95 1.46-2.21 1.46-3.54s-.52-2.59-1.46-3.54l-18.88-18.87c-.94-.94-2.2-1.46-3.53-1.46s-2.59.52-3.54 1.46c-.94.95-1.46 2.2-1.46 3.54s.52 2.59 1.46 3.53l10.34 10.34h-35.93c-2.76 0-5 2.24-5 5s2.24 5 5 5h35.93l-10.34 10.34c-.94.94-1.46 2.2-1.46 3.53s.52 2.59 1.46 3.54c.95.94 2.2 1.46 3.54 1.46s2.59-.52 3.53-1.46zm21.46-35.4c0-2.76-2.24-5-5-5h-18.23c-2.76 0-5 2.24-5 5s2.24 5 5 5h13.23v53.72h-13.23c-2.76 0-5 2.25-5 5s2.24 5 5 5h18.23c2.76 0 5-2.24 5-5z" fill="#fff"/></g></g></svg>