<svg id="Layer_1" enable-background="new 0 0 512 512" viewBox="0 0 512 512" xmlns="http://www.w3.org/2000/svg"><path d="m205.09 270.63c0 10.52 6.52 19.76 16.44 23.27s20.83.43 27.44-7.74l50-61.88c11.42 14.97 18.2 33.68 18.2 53.94 0 24.6-9.98 46.89-26.11 62.99-16.1 16.13-38.38 26.08-62.96 26.08-24.6 0-46.86-9.95-62.99-26.08-16.1-16.1-26.08-38.38-26.08-62.99 0-24.58 9.98-46.86 26.08-62.96 10.91-10.91 24.63-18.99 39.97-23.1v78.47zm243.1-23.11-29.25-9.5c-3.85-1.25-6.6-4.14-7.63-8.08-1.05-4-2.24-7.94-3.54-11.85h-92.87c11.82 17.06 18.77 37.79 18.77 60.12 0 29.17-11.82 55.56-30.93 74.66-19.11 19.11-45.5 30.93-74.64 30.93-29.17 0-55.56-11.82-74.66-30.93-19.11-19.11-30.93-45.5-30.93-74.66 0-29.14 11.82-55.53 30.93-74.64 13.92-13.92 31.72-23.98 51.65-28.4v-124.57c-3.6 1.05-6.46 3.8-7.68 7.54l-9.52 29.25c-1.25 3.86-4.14 6.6-8.08 7.63-16.7 4.39-32.51 11.03-47.08 19.53-3.51 2.04-7.48 2.15-11.11.31l-27.42-13.97c-4.56-2.32-9.86-1.47-13.49 2.15l-27.81 27.81c-3.63 3.63-4.45 8.93-2.13 13.46l13.95 27.44c1.87 3.6 1.76 7.6-.31 11.11-8.5 14.57-15.11 30.36-19.5 47.08-1.05 3.94-3.77 6.83-7.65 8.08l-29.23 9.5c-4.88 1.59-8.03 5.93-8.03 11.03v39.34c0 5.13 3.15 9.47 8.02 11.05l29.23 9.5c3.88 1.25 6.6 4.14 7.65 8.08 4.39 16.72 11 32.51 19.5 47.08 2.07 3.51 2.18 7.51.31 11.11l-13.95 27.44c-2.32 4.54-1.5 9.84 2.13 13.46l27.81 27.81c3.63 3.63 8.93 4.45 13.49 2.15l27.41-13.97c3.63-1.84 7.6-1.73 11.11.31 14.57 8.5 30.39 15.14 47.08 19.53 3.94 1.02 6.83 3.77 8.08 7.63l9.52 29.25c1.56 4.85 5.9 7.99 11.03 7.99h39.35c5.1 0 9.44-3.15 11.03-7.99l9.5-29.25c1.28-3.85 4.17-6.6 8.08-7.63 16.72-4.39 32.54-11.03 47.08-19.53 3.51-2.04 7.51-2.15 11.14-.31l27.41 13.97c4.56 2.3 9.86 1.47 13.46-2.15l27.84-27.81c3.6-3.63 4.45-8.93 2.13-13.46l-13.97-27.44c-1.84-3.63-1.73-7.6.31-11.11 8.5-14.57 15.14-30.36 19.53-47.08 1.02-3.94 3.77-6.83 7.63-8.08l29.25-9.5c4.88-1.59 8.02-5.92 8.02-11.05v-39.34c0-5.1-3.15-9.44-8.02-11.03zm-7.91-174.35c-2.55 0-4.85 1.05-6.55 2.72-1.67 1.7-2.72 4.03-2.72 6.55v42.38c0 2.55 1.05 4.88 2.72 6.55 1.7 1.67 4 2.72 6.55 2.72s4.88-1.05 6.55-2.72c1.7-1.67 2.72-4 2.72-6.55v-42.39c0-2.52-1.02-4.85-2.72-6.55-1.67-1.67-4-2.71-6.55-2.71zm71.72-51.17v163.28c0 8.96-7.34 16.33-16.33 16.33h-194.03c-3.63 0-6.77 1.47-9.07 4.31l-56.44 69.85c-2.21 2.75-5.75 3.74-9.07 2.58-3.34-1.19-5.44-4.2-5.44-7.71v-248.64c0-8.99 7.34-16.33 16.33-16.33h257.73c8.98 0 16.32 7.34 16.32 16.33zm-190.15 101c0-7.63-3.12-14.51-8.11-19.53-4.62-4.62-10.88-7.63-17.83-8.05-.25-.03-.51-.03-.77-.03h-.03c-.14-.03-.31-.03-.48-.03-2.83-.11-5.41-1.36-7.34-3.26-2.01-2.01-3.26-4.79-3.26-7.82 0-3.06 1.25-5.81 3.26-7.85 2.04-2.01 4.79-3.26 7.85-3.26 2.47 0 4.73.79 6.52 2.1 1.9 1.39 3.35 3.34 4.08 5.61 1.39 4.34 6.01 6.72 10.35 5.33s6.72-6.01 5.33-10.35c-1.81-5.61-5.39-10.46-10.06-13.89-4.59-3.34-10.21-5.33-16.21-5.33-7.6 0-14.51 3.12-19.53 8.11-4.99 5.02-8.11 11.93-8.11 19.53s3.12 14.51 8.11 19.5c4.65 4.62 10.89 7.63 17.83 8.05.25.03.51.06.77.06h.51c2.86.14 5.44 1.36 7.34 3.26 2.01 2.01 3.26 4.79 3.26 7.85 0 3.03-1.25 5.81-3.26 7.82s-4.79 3.26-7.85 3.26c-2.47 0-4.71-.77-6.52-2.1-1.9-1.39-3.34-3.34-4.08-5.61-1.39-4.34-6.01-6.72-10.35-5.33s-6.72 6.04-5.33 10.35c1.81 5.61 5.39 10.46 10.06 13.89 4.59 3.34 10.2 5.33 16.21 5.33 7.63 0 14.51-3.12 19.53-8.11 4.99-4.99 8.11-11.9 8.11-19.5zm37.05-27.64v-22.2h26.82c4.54 0 8.25-3.69 8.25-8.25s-3.71-8.28-8.25-8.28h-35.09c-4.56 0-8.25 3.71-8.25 8.28v77.44c0 4.56 3.69 8.25 8.25 8.25h35.09c4.54 0 8.25-3.69 8.25-8.25s-3.71-8.28-8.25-8.28h-26.82v-22.2h19.19c4.54 0 8.25-3.69 8.25-8.25s-3.71-8.28-8.25-8.28h-19.19zm107.18-12.93c0-7.09-2.89-13.55-7.57-18.23-4.68-4.65-11.11-7.57-18.23-7.57-7.09 0-13.55 2.92-18.23 7.57-4.68 4.68-7.57 11.14-7.57 18.23v42.38c0 7.11 2.89 13.55 7.57 18.23s11.14 7.57 18.23 7.57c7.12 0 13.55-2.89 18.23-7.57s7.57-11.11 7.57-18.23z"/></svg>