<svg id="Layer_1" enable-background="new 0 0 512 512" viewBox="0 0 512 512" xmlns="http://www.w3.org/2000/svg" xmlns:xlink="http://www.w3.org/1999/xlink"><linearGradient id="SVGID_1_" gradientUnits="userSpaceOnUse" x1="26.113" x2="492.519" y1="485.812" y2="19.406"><stop offset="0" stop-color="#294074"/><stop offset="1" stop-color="#f494be"/></linearGradient><path clip-rule="evenodd" d="m91.52 379.16 41.39 41.39c-7.51 24.28-30.94 53.09-95.7 68.45-8.53 2.03-16.16-5.6-14.14-14.14 15.36-64.76 44.18-88.18 68.45-95.7zm259.48-161.08c15.74-15.74 15.74-41.26 0-57s-41.26-15.74-57 0-15.74 41.26 0 57 41.26 15.74 57 0zm145.03-190.44c.4 32.44-3.9 62.02-12.23 89.32-21.33-5.24-40.77-16.98-56.24-32.46-15.47-15.47-27.22-34.91-32.45-56.24 27.3-8.33 56.89-12.63 89.32-12.23 6.37.09 11.53 5.24 11.6 11.61zm-15.31 98.86c-22.81-5.75-43.65-18.34-60.23-34.92s-29.16-37.42-34.91-60.23c-117.03 40.53-191.36 157.06-268.39 297.29-2.55 4.64-1.76 10.2 1.99 13.95l50.31 50.31c3.75 3.75 9.3 4.54 13.95 1.99 140.23-77.04 256.75-151.36 297.28-268.39zm-122.65 27.5c19.65 19.65 19.65 51.5 0 71.14-19.65 19.65-51.5 19.65-71.14 0-19.65-19.65-19.65-51.5 0-71.14 19.64-19.64 51.5-19.64 71.14 0zm-203.47 238.15-34.68-34.68-17.98 17.98 34.68 34.68zm-40.63-78.4c-22.15-7.74-54.27-12.31-84.98-8.84-11.1 1.25-17.5-12.42-9.42-20.14 37.26-35.61 78-57.15 145.86-59.36-18.07 28.88-34.99 58.55-51.46 88.34zm172.54 32.99c-2.25 67.71-23.78 108.4-59.35 145.61-7.72 8.08-21.4 1.68-20.14-9.42 3.45-30.62-1.07-62.65-8.77-84.79 29.75-16.45 59.4-33.35 88.26-51.4z" fill="url(#SVGID_1_)" fill-rule="evenodd"/></svg>