<?xml version="1.0"?>
<svg xmlns="http://www.w3.org/2000/svg" xmlns:xlink="http://www.w3.org/1999/xlink" viewBox="0 0 64 64" width="512" height="512"><defs><linearGradient id="New_Gradient_Swatch_3" x1="53.799" y1="65.075" x2="53.799" y2="-1.676" gradientUnits="userSpaceOnUse"><stop offset="0" stop-color="#006df0"/><stop offset="1" stop-color="#00e7f0"/></linearGradient><linearGradient id="New_Gradient_Swatch_3-2" x1="10.201" y1="65.075" x2="10.201" y2="-1.676" xlink:href="#New_Gradient_Swatch_3"/><linearGradient id="New_Gradient_Swatch_3-3" x1="32" y1="65.075" x2="32" y2="-1.676" xlink:href="#New_Gradient_Swatch_3"/></defs><g id="Help_support" data-name="Help support"><path d="M60.168,51.051l.992-1.489A4.987,4.987,0,0,0,62,46.789V33a1.029,1.029,0,0,0-.034-.259L56.528,12.467A3.994,3.994,0,0,0,52.66,9.49a3.928,3.928,0,0,0-1.03.134,4.005,4.005,0,0,0-2.826,4.9l2.941,10.99a4.15,4.15,0,0,0-.483.237A3.974,3.974,0,0,0,49.4,28.184L46.03,40.757l-.1.412a11.006,11.006,0,0,0,.833,7.587L47.9,51.024a1.027,1.027,0,0,1,.1.448V52H47a1,1,0,0,0-1,1v8a1,1,0,0,0,1,1H61a1,1,0,0,0,1-1V53a1,1,0,0,0-1-1H60v-.4A.994.994,0,0,1,60.168,51.051ZM60,60H48V54H60ZM50,52v-.528a3.022,3.022,0,0,0-.316-1.342l-1.135-2.269a9.008,9.008,0,0,1-.682-6.207L51.331,28.7a2,2,0,0,1,3.863,1.035l-1.876,7a1,1,0,0,0,1.932.518l1.876-7a4,4,0,0,0-2.828-4.9,4.149,4.149,0,0,0-.555-.108L50.736,14.01a2,2,0,0,1,1.414-2.454,1.891,1.891,0,0,1,.51-.066,2,2,0,0,1,1.934,1.489L60,33.132V46.789a2.989,2.989,0,0,1-.5,1.664L58.5,49.941a2.989,2.989,0,0,0-.5,1.664V52Z" style="fill:url(#New_Gradient_Swatch_3)"/><path d="M16.105,51.025l1.135-2.269a11.008,11.008,0,0,0,.833-7.588L14.6,28.184a4,4,0,0,0-2.346-2.666L15.2,14.53A4.006,4.006,0,0,0,12.37,9.624a3.928,3.928,0,0,0-1.03-.134,3.992,3.992,0,0,0-3.866,2.971l-5.44,20.28A1.029,1.029,0,0,0,2,33V46.789a4.987,4.987,0,0,0,.84,2.773l.992,1.489A.994.994,0,0,1,4,51.605V52H3a1,1,0,0,0-1,1v8a1,1,0,0,0,1,1H17a1,1,0,0,0,1-1V53a1,1,0,0,0-1-1H16v-.528A1.019,1.019,0,0,1,16.105,51.025ZM16,60H4V54H16ZM6,52v-.4a2.989,2.989,0,0,0-.5-1.664L4.5,48.453A2.989,2.989,0,0,1,4,46.789V33.132L9.408,12.973A1.993,1.993,0,0,1,11.34,11.49a1.891,1.891,0,0,1,.51.066,2,2,0,0,1,1.414,2.456L10.257,25.248a4.149,4.149,0,0,0-.555.108,4,4,0,0,0-2.828,4.9l1.876,7a1,1,0,0,0,1.932-.518l-1.876-7A2,2,0,1,1,12.669,28.7L16.03,41.243l.1.41a9.011,9.011,0,0,1-.682,6.208l-1.135,2.27A3.014,3.014,0,0,0,14,51.472V52Z" style="fill:url(#New_Gradient_Swatch_3-2)"/><path d="M45,22V15a13,13,0,0,0-26,0v7a3,3,0,0,0-3,3v3a3,3,0,0,0,3,3h2a3,3,0,0,0,3-3V25a3,3,0,0,0-3-3V15a11,11,0,0,1,22,0v7a3,3,0,0,0-3,3v3a3,3,0,0,0,3,3v3a1,1,0,0,1-1,1H35.816A3,3,0,0,0,33,33H31a3,3,0,0,0,0,6h2a3,3,0,0,0,2.816-2H42a3,3,0,0,0,3-3V31a3,3,0,0,0,3-3V25A3,3,0,0,0,45,22ZM22,25v3a1,1,0,0,1-1,1H19a1,1,0,0,1-1-1V25a1,1,0,0,1,1-1h2A1,1,0,0,1,22,25ZM33,37H31a1,1,0,0,1,0-2h2a1,1,0,0,1,0,2Zm13-9a1,1,0,0,1-1,1H43a1,1,0,0,1-1-1V25a1,1,0,0,1,1-1h2a1,1,0,0,1,1,1Z" style="fill:url(#New_Gradient_Swatch_3-3)"/><path d="M34,24H30a1,1,0,0,1-1-1v-.756l-.533.533a1,1,0,0,1-1.414,0l-2.83-2.83a1,1,0,0,1,0-1.414L24.756,18H24a1,1,0,0,1-1-1V13a1,1,0,0,1,1-1h.756l-.533-.533a1,1,0,0,1,0-1.414l2.83-2.83a1,1,0,0,1,1.414,0L29,7.756V7a1,1,0,0,1,1-1h4a1,1,0,0,1,1,1v.756l.533-.533a1,1,0,0,1,1.414,0l2.83,2.83a1,1,0,0,1,0,1.414L39.244,12H40a1,1,0,0,1,1,1v4a1,1,0,0,1-1,1h-.756l.533.533a1,1,0,0,1,0,1.414l-2.83,2.83a1,1,0,0,1-1.414,0L35,22.244V23A1,1,0,0,1,34,24Zm-3-2h2V19.83a1,1,0,0,1,1.707-.707l1.533,1.533,1.416-1.416-1.533-1.533A1,1,0,0,1,36.83,16H39V14H36.83a1,1,0,0,1-.707-1.707l1.533-1.533L36.24,9.344l-1.533,1.533A1,1,0,0,1,33,10.17V8H31v2.17a1,1,0,0,1-1.707.707L27.76,9.344,26.344,10.76l1.533,1.533A1,1,0,0,1,27.17,14H25v2h2.17a1,1,0,0,1,.707,1.707L26.344,19.24l1.416,1.416,1.533-1.533A1,1,0,0,1,31,19.83Zm1-4a3,3,0,1,1,3-3A3,3,0,0,1,32,18Zm0-4a1,1,0,1,0,1,1A1,1,0,0,0,32,14Z" style="fill:url(#New_Gradient_Swatch_3-3)"/></g></svg>
