<svg id="Layer_1" height="512" viewBox="0 0 512 512" width="512" xmlns="http://www.w3.org/2000/svg" xmlns:xlink="http://www.w3.org/1999/xlink" data-name="Layer 1"><linearGradient id="GradientFill_1" gradientUnits="userSpaceOnUse" x1="256" x2="256" y1="512"><stop offset="0" stop-color="#6c54a3"/><stop offset="1" stop-color="#00b1d2"/></linearGradient><path d="m256 0c141.385 0 256 114.615 256 256s-114.615 256-256 256-256-114.615-256-256 114.615-256 256-256zm72.262 240.744a13.981 13.981 0 1 0 13.982 13.981 13.995 13.995 0 0 0 -13.982-13.981zm43.735 0a13.981 13.981 0 1 0 13.981 13.981 14 14 0 0 0 -13.978-13.981zm-87.475 0a13.981 13.981 0 1 0 13.987 13.981 14 14 0 0 0 -13.987-13.981zm43.74 34.451a13.981 13.981 0 1 0 13.982 13.982 14 14 0 0 0 -13.982-13.977zm43.735 0a13.981 13.981 0 1 0 13.981 13.982 14 14 0 0 0 -13.978-13.977zm-87.475 0a13.981 13.981 0 1 0 13.987 13.982 14 14 0 0 0 -13.987-13.977zm43.74 34.452a13.981 13.981 0 1 0 13.982 13.982 14 14 0 0 0 -13.982-13.982zm43.735 0a13.981 13.981 0 1 0 13.981 13.982 14 14 0 0 0 -13.978-13.982zm-87.475 0a13.981 13.981 0 1 0 13.987 13.982 14 14 0 0 0 -13.987-13.982zm43.74-103.355a13.981 13.981 0 1 0 13.982 13.982 13.995 13.995 0 0 0 -13.982-13.982zm43.735 0a13.981 13.981 0 1 0 13.981 13.982 14 14 0 0 0 -13.978-13.982zm-87.475 0a13.981 13.981 0 1 0 13.987 13.982 14 14 0 0 0 -13.987-13.982zm97.354-53.31h-107.231a4.1 4.1 0 0 0 -4.1 4.1v36.038a4.1 4.1 0 0 0 4.1 4.1h107.231a4.1 4.1 0 0 0 4.1-4.1v-36.036a4.1 4.1 0 0 0 -4.1-4.1zm15.924 190.078v-194.875a7.032 7.032 0 0 0 -7.019-7.024h-132.058v208.92h132.054a7.03 7.03 0 0 0 7.019-7.021zm-210.69 45.371a23.686 23.686 0 0 0 20.948-12.553h-16.929a15.239 15.239 0 0 1 -15.22-15.226v-2.369h-13.47a15.241 15.241 0 0 1 -15.224-15.223v-51.3h-9.247a23.789 23.789 0 0 0 -23.768 23.762v49.144a23.789 23.789 0 0 0 23.764 23.765zm-31.693-240.246v194.875a7.031 7.031 0 0 0 7.022 7.021h13.47v-208.92h-13.47a7.032 7.032 0 0 0 -7.022 7.024zm235.36-15.225h-132.054v-2.369a15.239 15.239 0 0 0 -15.223-15.224h-52.371a15.239 15.239 0 0 0 -15.22 15.224v2.369h-13.47a15.243 15.243 0 0 0 -15.224 15.225v135.37h-9.247a32 32 0 0 0 -31.968 31.967v49.144a32 32 0 0 0 31.969 31.966h49.141a31.873 31.873 0 0 0 29.93-20.754h26.46a15.24 15.24 0 0 0 15.221-15.226v-2.369h132.056a15.243 15.243 0 0 0 15.223-15.223v-194.875a15.245 15.245 0 0 0 -15.223-15.225z" fill="url(#GradientFill_1)" fill-rule="evenodd"/></svg>