<svg id="Layer_1" viewBox="0 0 512 512" xmlns="http://www.w3.org/2000/svg" xmlns:xlink="http://www.w3.org/1999/xlink" data-name="Layer 1"><linearGradient id="linear-gradient" gradientUnits="userSpaceOnUse" x1="48.405" x2="463.595" y1="256" y2="256"><stop offset="0" stop-color="#0056e9"/><stop offset=".008" stop-color="#0057e9"/><stop offset=".304" stop-color="#007de2"/><stop offset=".577" stop-color="#0098dc"/><stop offset=".818" stop-color="#00a9d9"/><stop offset="1" stop-color="#00afd8"/></linearGradient><path d="m463.6 295.706v39.867h-85.567l-3.672-39.867zm-398.642 169.579h118.084v43.247h-118.084zm32.581 21.624a7.214 7.214 0 0 0 7.2 7.2h38.526a7.2 7.2 0 0 0 0-14.4h-38.528a7.2 7.2 0 0 0 -7.198 7.2zm157.048-295.386h8.859v-43.014a17.082 17.082 0 0 0 -17.019-17.048h-162.993a17.089 17.089 0 0 0 -17.048 17.048v79.675h158.155l.991-10.492a28.978 28.978 0 0 1 29.055-26.169zm141.66-38.089c-11.977 10.229-7.518 18.01-2.739 26.374 2.01 3.526 4.138 7.285 1.515 10.986a7.176 7.176 0 0 0 11.745 8.248c7.868-11.133 3.409-18.972-.788-26.316-1.748-3.031-3.351-5.857-.407-8.393a7.172 7.172 0 0 0 -9.326-10.9zm23.081 38.293a7.168 7.168 0 1 0 12.822 6.411c6.7-13.376 2.769-23.08-.9-32.173-2.448-6-4.692-11.569 0-17.223a7.161 7.161 0 0 0 -11.016-9.151c-10.2 12.3-6.411 21.653-2.3 31.765 2.501 6.207 5.182 12.823 1.394 20.371zm16.348 30.279h14.25a12.342 12.342 0 0 1 12.328 12.327v22.848a12.342 12.342 0 0 1 -12.328 12.327h-14.25v11.8h-46.6v-65.4h46.6zm0 14.4v18.709h12.181v-18.715zm-22.527 275.594h33.893v-162.031h-33.893zm-364.744-176.427h166.257l3.672-39.867h-169.929zm16.553 14.4h118.084v43.276h-118.084zm32.581 21.653a7.189 7.189 0 0 0 7.2 7.169h38.526a7.184 7.184 0 1 0 0-14.368h-38.528a7.2 7.2 0 0 0 -7.198 7.195zm-32.581 36.02h118.084v43.247h-118.084zm32.581 21.623a7.214 7.214 0 0 0 7.2 7.2h38.526a7.2 7.2 0 0 0 0-14.4h-38.528a7.2 7.2 0 0 0 -7.198 7.196zm-31.153-185.9a17.084 17.084 0 0 0 17.048 17.019h62.248v20.922h38.468v-20.924h37.45l1.632-17.806h-156.846zm248.7 199.42h-37.506l-47.152 47.152a10.942 10.942 0 1 0 15.472 15.473l39.519-39.514v35.145a10.929 10.929 0 1 0 21.857 0v-35.145l39.517 39.517a10.942 10.942 0 1 0 15.474-15.475zm33.047-53.738h-103.571a19.671 19.671 0 0 0 0 39.342h103.571a19.671 19.671 0 0 0 0-39.342zm-61.49-331.291a57.731 57.731 0 1 1 57.731 57.73 57.74 57.74 0 0 1 -57.731-57.73zm50.183 0a7.189 7.189 0 0 0 7.2 7.169h20.774a7.184 7.184 0 1 0 0-14.367h-13.58v-27.889a7.2 7.2 0 0 0 -14.4 0zm-51.407 275.04v41.848h21.857v-41.848a10.929 10.929 0 0 0 -21.857 0zm64.492 29.958a14.452 14.452 0 0 0 10.9-4.662 13.67 13.67 0 0 0 3.818-10.987l-11.775-128.109a14.612 14.612 0 0 0 -14.746-13.085h-83.521a14.613 14.613 0 0 0 -14.747 13.085l-11.773 128.113a13.663 13.663 0 0 0 3.818 10.987 14.407 14.407 0 0 0 10.9 4.662h28.239v-29.962a25.325 25.325 0 0 1 50.649 0v29.958z" fill="url(#linear-gradient)"/></svg>