<svg clip-rule="evenodd" fill-rule="evenodd" height="1.707in" image-rendering="optimizeQuality" shape-rendering="geometricPrecision" text-rendering="geometricPrecision" viewBox="0 0 1707 1707" width="1.707in" xmlns="http://www.w3.org/2000/svg"><g id="Layer_x0020_1"><path d="m1066 1707h-686c-104 0-189-85-189-190v-1327c0-105 85-190 189-190h686c105 0 190 85 190 190v504c-3 0-6 0-9 0-20 0-40-1-60 0-3 1-6 1-9 1v-368h-283c-11 0-20-8-20-19 0-84-68-152-152-152-83 0-152 68-152 152 0 11-8 19-19 19h-283v1050h909v-48c3 0 6 1 9 1 20 1 40 0 60 0h9v187c0 105-85 190-190 190zm-343-1366c-86 0-86-132 0-132 87 0 87 132 0 132zm132 1211h-263c-26 0-26-40 0-40h263c26 0 26 40 0 40z"/><path d="m638 839c-30 0-49-32-34-58l180-311c7-12 19-20 33-20 30 1 50 32 34 59l-179 311c-7 12-20 19-34 19z"/><path d="m979 645-107-107c-10-10-14-24-10-37 8-29 43-40 65-18l135 134c15 15 15 40 0 55l-135 135c-7 7-17 11-27 11-35 0-53-42-28-67z"/><path d="m477 645 107 106c24 25 7 67-28 67-10 0-20-4-27-11l-135-135c-15-15-15-39 0-55l135-134c10-10 23-14 37-11 29 8 40 44 18 66z"/><path d="m1247 1291c-95 0-96 7-105-80-5-2-9-3-13-5-69 55-64 49-131-18-31-30 5-64 25-88-2-4-4-9-5-13-88-9-80-10-80-105 0-43 49-41 80-45 1-4 3-8 5-12-55-69-50-64 18-132 30-30 64 6 88 25 4-1 9-3 13-5 10-87 10-80 105-80 43 0 41 49 45 80 4 2 8 3 12 5 69-55 64-49 132 18 30 31-6 64-25 88 1 5 3 9 5 13 87 10 80 10 80 105 0 43-49 42-80 45-2 4-4 9-5 13 54 68 49 63-18 131-31 30-64-6-89-25-4 2-8 4-12 5-4 31-2 80-45 80zm-30-150c-71 0-129-58-129-129s58-128 129-128 128 57 128 128-58 129-128 129z"/></g></svg>