<svg height="496pt" viewBox="0 0 496 496" width="496pt" xmlns="http://www.w3.org/2000/svg"><path d="m488 128h-180.382812c-15.402344-8.863281-32.914063-14.351562-51.617188-15.59375v-49.542969c7.535156-1.960937 14.023438-6.511719 18.335938-12.75l53.960937 26.976563c-.089844.972656-.296875 1.917968-.296875 2.910156 0 17.648438 14.351562 32 32 32 15.863281 0 28.96875-11.632812 31.472656-26.792969l54.160156-27.078125c5.207032 3.671875 11.527344 5.871094 18.367188 5.871094 17.648438 0 32-14.351562 32-32s-14.351562-32-32-32-32 14.351562-32 32c0 4.839844 1.160156 9.390625 3.097656 13.503906l-45.410156 22.703125c-4.710938-11.808593-16.207031-20.207031-29.6875-20.207031-10.921875 0-20.558594 5.511719-26.335938 13.886719l-53.960937-26.976563c.089844-.972656.296875-1.917968.296875-2.910156 0-17.648438-14.351562-32-32-32-14.871094 0-27.289062 10.238281-30.863281 24h-154.273438c-3.574219-13.761719-15.992187-24-30.863281-24-17.648438 0-32 14.351562-32 32s14.351562 32 32 32c6.617188 0 12.777344-2.015625 17.878906-5.472656l113.679688 69.472656h-155.558594c-4.425781 0-8 3.585938-8 8v272c0 4.414062 3.574219 8 8 8h192v32h-40c-22.054688 0-40 17.945312-40 40 0 4.414062 3.574219 8 8 8h240c4.425781 0 8-3.585938 8-8 0-22.054688-17.945312-40-40-40h-40v-32h192c4.425781 0 8-3.585938 8-8v-272c0-4.414062-3.574219-8-8-8zm-24-112c8.824219 0 16 7.175781 16 16s-7.175781 16-16 16-16-7.175781-16-16 7.175781-16 16-16zm-104 48c8.824219 0 16 7.175781 16 16s-7.175781 16-16 16-16-7.175781-16-16 7.175781-16 16-16zm-8 168c0 57.34375-46.65625 104-104 104s-104-46.65625-104-104 46.65625-104 104-104 104 46.65625 104 104zm2.046875-56h93.953125v192h-400v-192h93.953125c-8.875 16.734375-13.953125 35.777344-13.953125 56 0 66.167969 53.832031 120 120 120s120-53.832031 120-120c0-20.222656-5.078125-39.265625-13.953125-56zm-106.046875-160c8.824219 0 16 7.175781 16 16s-7.175781 16-16 16-16-7.175781-16-16 7.175781-16 16-16zm-8 46.863281v49.542969c-17.480469 1.160156-33.96875 5.96875-48.617188 13.839844l-130.886718-79.988282c1-1.984374 1.800781-4.066406 2.367187-6.257812h154.273438c2.910156 11.191406 11.671875 19.953125 22.863281 22.863281zm-208-14.863281c-8.824219 0-16-7.175781-16-16s7.175781-16 16-16 16 7.175781 16 16-7.175781 16-16 16zm326.632812 432h-221.265624c3.304687-9.3125 12.199218-16 22.632812-16h176c10.433594 0 19.328125 6.6875 22.632812 16zm-78.632812-32h-64v-32h64zm200-48h-464v-256h150.6875c-5.289062 4.886719-10.121094 10.238281-14.464844 16h-112.222656c-4.425781 0-8 3.585938-8 8v208c0 4.414062 3.574219 8 8 8h416c4.425781 0 8-3.585938 8-8v-208c0-4.414062-3.574219-8-8-8h-112.222656c-4.34375-5.761719-9.175782-11.113281-14.464844-16h150.6875zm0 0"/><path d="m304 176h-87.0625l-.984375-8.878906c-.449219-4.058594-3.875-7.121094-7.953125-7.121094h-24v16h16.832031l6.921875 62.257812c-9.386718 3.421876-15.753906 12.246094-15.753906 22.46875v11.273438c0 2.238281.929688 4.246094 2.414062 5.703125-1.503906 3.136719-2.414062 6.601563-2.414062 10.296875 0 13.230469 10.769531 24 24 24s24-10.769531 24-24c0-2.816406-.574219-5.488281-1.472656-8h18.953125c-.90625 2.511719-1.480469 5.183594-1.480469 8 0 13.230469 10.769531 24 24 24s24-10.769531 24-24c0-2.816406-.574219-5.488281-1.472656-8h9.472656v-16h-104v-3.273438c0-3.742187 2.542969-6.949218 6.191406-7.789062l91.601563-21.136719c3.640625-.839843 6.207031-4.074219 6.207031-7.800781v-40c0-4.414062-3.574219-8-8-8zm-40 16v33.023438l-16 3.695312v-36.71875zm-32 0v40.40625l-8.574219 1.976562-4.707031-42.382812zm-8 96c0 4.40625-3.585938 8-8 8s-8-3.59375-8-8 3.585938-8 8-8 8 3.59375 8 8zm64 0c0 4.40625-3.585938 8-8 8s-8-3.59375-8-8 3.585938-8 8-8 8 3.59375 8 8zm8-70.359375-16 3.695313v-29.335938h16zm0 0"/></svg>