<svg id="Layer_1" height="512" viewBox="0 0 512 512" width="512" xmlns="http://www.w3.org/2000/svg" data-name="Layer 1"><path d="m465.1 4.69a15.988 15.988 0 0 0 -22.627 0l-81.78 81.768-24.765-24.766a16.017 16.017 0 0 0 -26.768 7.171l-41.86 156.251a15.987 15.987 0 0 0 19.6 19.586l156.23-41.858a16.011 16.011 0 0 0 7.174-26.782l-24.765-24.767 81.78-81.768a16.011 16.011 0 0 0 0-22.636zm-306.474 101.838a23.558 23.558 0 0 1 -6.605 29.257l-8.01 6.392c-20.459-36.291-36.61-73.016-48.157-109.49l27.235.893zm246.852 246.84 72.943 35.543.876 26.93a612.887 612.887 0 0 1 -109.463-47.879l6.374-7.982a23.586 23.586 0 0 1 29.27-6.612zm-281.471 34.622c-68.295-68.301-111.133-157.767-123.881-258.712a15.965 15.965 0 0 1 -.126-2.016c0-50.793 18.86-91.322 54.543-117.211a49.812 49.812 0 0 1 31.602-9.691l38.585 1.26a30.5 30.5 0 0 1 26.862 17.389l35.8 73.5a55.685 55.685 0 0 1 -15.411 68.3l-32.147 25.66c40.1 88.275 97.432 145.6 185.705 185.7l25.657-32.15a55.732 55.732 0 0 1 68.3-15.419l73.483 35.8a30.542 30.542 0 0 1 17.407 26.87l1.254 38.579a49.9 49.9 0 0 1 -9.692 31.6c-25.884 35.692-66.42 54.551-117.222 54.551a16.85 16.85 0 0 1 -2.007-.13c-100.954-12.749-190.419-55.578-258.712-123.88z" fill="#006df0" fill-rule="evenodd"/></svg>