<svg id="Layer_1" viewBox="0 0 512 512" xmlns="http://www.w3.org/2000/svg" xmlns:xlink="http://www.w3.org/1999/xlink" data-name="Layer 1"><linearGradient id="GradientFill_1" gradientUnits="userSpaceOnUse" x1="81.363" x2="453.4" y1="477.513" y2="105.476" data-name="GradientFill 1"><stop offset="0" stop-color="#00a7d8"/><stop offset="1" stop-color="#8e6aae"/></linearGradient><path d="m436.609 401.602v-79.228c-7.313-7.342-14.655-14.655-21.997-21.997-5.187 2.58-10.545 4.819-16.016 6.633v26.305h-76.337v-26.305c-5.499-1.814-10.857-4.025-16.016-6.633l-18.595 18.595-53.971-53.972 18.595-18.595c-2.58-5.159-4.819-10.517-6.633-16.016h-26.306v-80.929h-129.032c-17.546 0-31.918 14.343-31.918 31.89v220.252zm14.57-265.975c6.35 10.148 10.828 21.118 13.436 32.428h22.904v48.331h-22.904c-2.608 11.31-7.087 22.28-13.436 32.428l16.186 16.186-34.157 34.157-16.186-16.186c-10.148 6.35-21.118 10.828-32.428 13.436v22.904h-48.331v-22.904c-11.31-2.608-22.28-7.087-32.428-13.408l-16.186 16.157-34.157-34.157 16.186-16.186c-6.35-10.148-10.828-21.118-13.436-32.428h-22.904v-48.331h22.904c2.608-11.31 7.087-22.28 13.436-32.428l-16.186-16.186 34.157-34.157 16.186 16.186c10.148-6.35 21.118-10.828 32.428-13.436v-22.876h48.331v22.876c11.31 2.608 22.28 7.086 32.428 13.436l16.186-16.186 34.157 34.157-16.186 16.186zm-75.345 58.762c13.719-13.691 3.969-37.219-15.392-37.219s-29.14 23.528-15.421 37.219c8.504 8.504 22.309 8.504 30.813 0zm-98.816-2.155c0-46.091 37.332-83.424 83.395-83.424s83.424 37.332 83.424 83.424-37.332 83.424-83.424 83.424-83.395-37.361-83.395-83.424zm13.975 0c0 15.335 5.074 30.643 15.165 43.285 6.151-13.351 17.065-23.981 30.473-29.821-15.392-13.691-16.101-37.474-1.531-52.044 14.003-13.975 36.652-13.975 50.655 0 14.542 14.57 13.862 38.353-1.531 52.072 13.436 5.839 24.293 16.441 30.472 29.792 10.092-12.614 15.166-27.95 15.166-43.285 0-38.353-31.096-69.42-69.449-69.42s-69.42 31.068-69.42 69.42zm25.909 54.085c25.795 20.806 62.135 20.098 87.052 0-9.411-28.885-44.391-40.932-69.619-23.386-8.051 5.584-14.457 14.031-17.433 23.386zm153.638 169.285h-446.06c8.277 19.673 28.573 31.238 49.862 31.238h346.337c21.26 0 41.584-11.565 49.861-31.238zm-394.526 22.621c-3.884 0-7.002-3.146-7.002-7.002s3.118-7.001 7.002-7.001h43.483c3.855 0 7.002 3.146 7.002 7.001s-3.146 7.002-7.002 7.002zm58.649-58.592h27.524v-82.545h-27.524zm-54.255 0h27.524v-61.398h-27.524zm108.51 0h27.524v-115.824h-27.524zm-5.414-160.81-99.638 57.515c-3.317 1.927-7.597.765-9.496-2.551-1.928-3.345-.765-7.597 2.551-9.524l99.638-57.515-6.293-1.672c-3.742-1.021-5.953-4.847-4.961-8.561.992-3.742 4.847-5.953 8.561-4.961l22.564 6.038c3.742.992 5.953 4.847 4.961 8.561l-6.066 22.564c-.992 3.742-4.819 5.953-8.532 4.961-3.742-.992-5.953-4.847-4.96-8.561l1.672-6.293z" fill="url(#GradientFill_1)" fill-rule="evenodd"/></svg>