<svg id="Layer_1" height="512" viewBox="0 0 66 66" width="512" xmlns="http://www.w3.org/2000/svg"><g><g><path d="m64.4 17.8c-14.7-14.2-48-14.3-62.7 0-.6.6-.8 1.5-.5 2.3l3.8 8.7c.3.7 1 1.2 1.8 1.2s.8-.2 8.9-4.2c.8-.4 1.3-1.3 1.1-2.2l-.7-3.9c10.6-4.6 23-4.7 33.8.1l-.7 3.8c-.2.9.3 1.8 1.1 2.2l8 4c1.1.5 2.3 0 2.8-1l3.8-8.7c.3-.8.1-1.7-.5-2.3z"/></g><g><path d="m52.7 35.1-4-2.3c-1.3-.8-2.2-2.2-2.2-3.7v-4.5c0-1.7-1.4-3.1-3.1-3.1h-1.3v-2.2c-.7-.2-1.3-.3-2-.4v2.6h-14.2v-2.6c-.7.1-1.3.2-2 .4v2.2h-1.3c-1.7 0-3.1 1.4-3.1 3.1-.3 2.7 1 6.4-2.2 8.3l-4 2.3c-2 1.1-3.2 3.2-3.2 5.5v15.4c0 1.7 1.3 3 3 3h39.9c1.7 0 3-1.3 3-3v-15.6c-.1-2.2-1.3-4.3-3.3-5.4zm-19.7 19.1c-6.9 0-12.5-5.6-12.5-12.5s5.6-12.5 12.5-12.5 12.5 5.6 12.5 12.5-5.6 12.5-12.5 12.5z"/></g><g><path d="m33 31.2c-5.8 0-10.5 4.7-10.5 10.5s4.7 10.5 10.5 10.5 10.5-4.7 10.5-10.5-4.7-10.5-10.5-10.5zm4.2 4.8 1.5 1.5-1.4 1.4-1.5-1.5zm-11.2 4.6h2v2.2h-2zm2.8 6.9-1.5-1.5 1.4-1.4 1.5 1.5zm-.1-8.6-1.4-1.4 1.5-1.5 1.4 1.4zm5.4 9.8h-2.2v-2h2.2zm0-12h-2.2v-2h2.2zm3.1 10.8-1.4-1.5 1.5-1.5 1.4 1.4zm2.8-4.7h-2v-2.2h2z"/></g></g></svg>