<?xml version="1.0"?>
<svg xmlns="http://www.w3.org/2000/svg" xmlns:xlink="http://www.w3.org/1999/xlink" viewBox="0 0 24 24"><defs><linearGradient gradientUnits="userSpaceOnUse" id="a" x1="1.8661" x2="22.1339" y1="7.27449" y2="16.72551"><stop offset="0" stop-color="#fff" stop-opacity="0.2"/><stop offset="1" stop-color="#fff" stop-opacity="0"/></linearGradient></defs><title/><ellipse cx="12" cy="12" rx="12" ry="6"/><path d="M12,17a19.4854,19.4854,0,0,1-7.51208-1.391L4.89062,14H6.64453a2.87279,2.87279,0,0,0,2.791-2.1792l.0874-.35205A1.98609,1.98609,0,0,0,7.59619,9H5.5a.4998.4998,0,0,0-.48486.37891l-.99756,3.98925-.00537.02051-.44458,1.78009C1.97266,14.299,1,13.19019,1,12,1,9.28955,6.0376,7,12,7s11,2.28955,11,5C23,14.71,17.9624,17,12,17Z" fill="#5c6bc0"/><path d="M5.14062,13l.75-3H7.59619a.98638.98638,0,0,1,.95654,1.22656l-.0874.35205A1.87423,1.87423,0,0,1,6.64453,13Z" fill="#5c6bc0"/><path d="M19.09619,9H17a.4998.4998,0,0,0-.48486.37891l-.99756,3.98925-.00537.02051-.49707,1.99024a.5.5,0,0,0,.36377.60644A.52017.52017,0,0,0,15.50049,16a.4993.4993,0,0,0,.48437-.37891L16.39062,14h1.75391a2.87279,2.87279,0,0,0,2.791-2.1792l.0874-.35205A1.98609,1.98609,0,0,0,19.09619,9Zm.95654,2.22656-.0874.35205A1.87423,1.87423,0,0,1,18.14453,13H16.64062l.75-3h1.70557a.98638.98638,0,0,1,.95654,1.22656Z"/><path d="M14.69531,9.61035A1.64993,1.64993,0,0,0,13.41113,9h-1.585l.16553-.91064a.49975.49975,0,1,0-.9834-.17872l-1,5.49952a.49985.49985,0,0,0,.40234.582A.56348.56348,0,0,0,10.50049,14a.49921.49921,0,0,0,.49121-.41016L11.64435,10h1.76678a.65541.65541,0,0,1,.6416.78906l-.54248,2.60938a.49939.49939,0,0,0,.38819.59082.4563.4563,0,0,0,.102.01074.50045.50045,0,0,0,.48926-.39844l.54248-2.60937A1.65168,1.65168,0,0,0,14.69531,9.61035Z"/><ellipse cx="12" cy="12" fill="url(#a)" rx="12" ry="6"/></svg>
