<svg id="Layer_1" enable-background="new 0 0 26 26" height="512" viewBox="0 0 26 26" width="512" xmlns="http://www.w3.org/2000/svg"><g id="_x38_48"><path d="m4.9899902 25h16.0100098c2.2000732 0 4-1.789978 4-4v-11.0599976h-24v11.0599976c0 2.210022 1.789917 4 3.9899902 4zm11.7800293-8.9499512c-.4200439-.3600464-.4801025-.9899902-.1199951-1.4100342.3499756-.4199829.9799805-.4799804 1.4099121-.1199951l2.6201172 2.2000122c.2299805.1900024.3598633.4699707.3598633.7700195 0 .289978-.1298828.5700073-.3598633.7599487l-2.6201172 2.210022c-.4363594.344656-1.0499687.3020153-1.4099121-.1300049-.3601074-.4199829-.3000488-1.0499878.1199951-1.3999634l1.7099609-1.4400024zm-5.6800537 5.4199829 2.0100098-8.4899902c.1300049-.5400391.6600342-.8800049 1.1999512-.75.5400391.1199951.880127.6599731.75 1.1900024l-2.0100098 8.5c-.1378145.5769844-.7288284.8841953-1.1999512.75-.540039-.1199951-.8798828-.6600341-.75-1.2000122zm-5.6999512-4.75 2.6199951-2.2000122c.4300537-.3599854 1.0599365-.2999878 1.4100342.1199951.3598633.4200439.2999268 1.0499878-.1201172 1.4100342l-1.7099609 1.4400024 1.7099609 1.4400024c.4200439.3499756.4799805.9799805.1201172 1.3999634-.3285618.4148693-.9565973.4879189-1.4100342.1300049l-2.6199951-2.2100219c-.4767847-.4116974-.4558792-1.1361961 0-1.5299683z"/><path d="m24.8699951 7.9400024h.1300049v-2.9400024c0-2.2099609-1.7999268-4-4-4h-16.0100098c-2.2000732 0-3.9899902 1.7900391-3.9899902 4v2.9400024h.1300049zm-12.540039-3.9699707c.5384741-.4301226 1.0754395-.3448381 1.4200439 0 .3708487.3707232.4002886.9975767 0 1.4199829-.3295813.3298044-.8772888.4342041-1.4200439 0-.3763752-.3974409-.3957673-1.0020647 0-1.4199829zm-3.7600098 0c.3701172-.3699951 1.0500488-.3699951 1.4200439 0 .4022808.4025536.4347162 1.0728984-.1500244 1.539978-.4164429.277629-.9339418.1982752-1.2700195-.1199951-.4146013-.460731-.3468876-1.0728597 0-1.4199829zm-3.75 0c.4751549-.4751549 1.2465696-.322408 1.5300293.1500244.2746401.4115415.2633977.9638705-.2700195 1.3899536-.4230991.2826405-.9488135.1910959-1.2600098-.1199951-.3696413-.3696413-.4286971-.9907617 0-1.4199829z"/></g></svg>